External Loads File
version=1
nRows=86
nColumns=13
Range=5.000000e-03-10 seconds
endheader
time 	forceRightX 	forceRightY 	forceRightZ 	pointRightX 	pointRightY 	pointRightZ 	forceLeftX 	forceLeftY 	forceLeftZ 	pointLeftX 	pointLeftY 	pointLeftZ 		
0.005000 35.972964 106.876513 -0.000000 0.344972 0.398042 -0.126232 40.786999 141.487552 -0.000000 0.044307 0.235019 -0.361139
0.010000 36.362681 108.372816 -0.000000 0.345000 0.397973 -0.126226 43.161565 143.518184 -0.000000 0.044244 0.235115 -0.361154
0.015000 36.671719 109.763852 -0.000000 0.345058 0.397869 -0.126227 45.300503 145.350881 -0.000000 0.044175 0.235225 -0.361163
0.020000 36.876542 110.960634 -0.000000 0.345122 0.397665 -0.126175 47.064665 146.866378 -0.000000 0.044110 0.235334 -0.361160
0.025000 35.247786 112.474556 -0.000000 0.345293 0.397158 -0.126160 46.114876 148.746615 -0.000000 0.045042 0.229843 -0.356448
0.030000 34.436697 113.431157 -0.000000 0.345243 0.397616 -0.126189 45.974483 149.885768 -0.000000 0.044837 0.228037 -0.355429
0.035000 36.650819 113.178546 -0.000000 0.345314 0.397518 -0.126179 49.625200 149.387611 -0.000000 0.043812 0.235762 -0.361100
0.040000 36.327554 113.479549 -0.000000 0.345415 0.397459 -0.126185 49.811166 149.638159 -0.000000 0.043725 0.235914 -0.361118
0.045000 35.889856 113.599516 -0.000000 0.345503 0.397348 -0.126190 49.813955 149.688243 -0.000000 0.043638 0.236063 -0.361103
0.050000 35.369515 113.572571 -0.000000 0.345598 0.397126 -0.126174 49.731213 149.616261 -0.000000 0.043577 0.236162 -0.361087
0.055000 34.775129 113.453761 -0.000000 0.345677 0.396987 -0.126178 49.597453 149.512177 -0.000000 0.043514 0.236267 -0.361088
0.060000 34.168690 113.286551 -0.000000 0.345748 0.396888 -0.126169 49.482301 149.430210 -0.000000 0.043470 0.236360 -0.361082
0.065000 33.604802 113.105216 -0.000000 0.345806 0.396782 -0.126172 49.439923 149.408667 -0.000000 0.043435 0.236414 -0.361069
0.070000 33.136196 112.922814 -0.000000 0.345850 0.396610 -0.126162 49.542700 149.459618 -0.000000 0.043429 0.236466 -0.361074
0.075000 32.724287 112.766308 -0.000000 0.345886 0.396568 -0.126162 49.739060 149.605233 -0.000000 0.043430 0.236531 -0.361072
0.080000 32.394268 112.641724 -0.000000 0.345890 0.396536 -0.126151 50.033961 149.820231 -0.000000 0.043433 0.236547 -0.361077
0.085000 32.165114 112.549598 -0.000000 0.345887 0.396521 -0.126149 50.420567 150.074511 -0.000000 0.043455 0.236572 -0.361085
0.090000 32.010741 112.488507 -0.000000 0.345880 0.396532 -0.126159 50.845520 150.346611 -0.000000 0.043485 0.236571 -0.361085
0.095000 31.909100 112.451865 -0.000000 0.345850 0.396578 -0.126160 51.248117 150.599855 -0.000000 0.043534 0.236575 -0.361094
0.100000 31.865068 112.436279 -0.000000 0.345833 0.396581 -0.126155 51.566023 150.784425 -0.000000 0.043587 0.236530 -0.361094
0.105000 31.868807 112.449780 -0.000000 0.345799 0.396622 -0.126153 51.675638 150.856446 -0.000000 0.043638 0.236487 -0.361093
0.110000 31.918477 112.491718 -0.000000 0.345759 0.396697 -0.126155 51.462679 150.767987 -0.000000 0.043687 0.236434 -0.361106
0.115000 32.006046 112.556271 -0.000000 0.345721 0.396835 -0.126172 50.885180 150.508967 -0.000000 0.043733 0.236389 -0.361109
0.120000 32.134500 112.640618 -0.000000 0.345664 0.396989 -0.126166 50.034058 150.135637 -0.000000 0.043778 0.236313 -0.361118
0.125000 32.374388 112.728132 -0.000000 0.345619 0.397039 -0.126168 49.184090 149.734743 -0.000000 0.043808 0.236269 -0.361117
0.130000 32.670324 112.830699 -0.000000 0.345565 0.397117 -0.126163 48.477752 149.458379 -0.000000 0.043828 0.236217 -0.361116
0.135000 33.034685 112.937016 -0.000000 0.345516 0.397161 -0.126171 48.085795 149.379532 -0.000000 0.043840 0.236174 -0.361113
0.140000 33.441836 113.054924 -0.000000 0.345484 0.397206 -0.126170 47.997520 149.500131 -0.000000 0.043848 0.236143 -0.361126
0.145000 33.866275 113.197928 -0.000000 0.345463 0.397226 -0.126162 48.094504 149.740698 -0.000000 0.043856 0.236106 -0.361110
0.150000 34.275412 113.371303 -0.000000 0.345462 0.397255 -0.126154 48.221149 149.990861 -0.000000 0.043863 0.236088 -0.361113
0.155000 34.648996 113.554914 -0.000000 0.345469 0.397207 -0.126154 48.281106 150.149635 -0.000000 0.043849 0.236065 -0.361111
0.160000 34.913696 113.732494 -0.000000 0.345492 0.397205 -0.126166 48.170401 150.180709 -0.000000 0.043828 0.236056 -0.361114
0.165000 35.048110 113.872602 -0.000000 0.345501 0.397206 -0.126244 47.909098 150.076652 -0.000000 0.043806 0.236066 -0.361117
0.170000 35.230955 113.884260 -0.000000 0.345541 0.396536 -0.126149 47.828093 149.786382 -0.000000 0.043776 0.236059 -0.361117
0.175000 35.077544 113.863726 -0.000000 0.345568 0.396513 -0.126138 47.521231 149.514939 -0.000000 0.043729 0.236091 -0.361118
0.180000 34.788106 113.756396 -0.000000 0.345600 0.396492 -0.126134 47.287959 149.225628 -0.000000 0.043686 0.236110 -0.361117
0.185000 34.200831 113.647006 -0.000000 0.345649 0.397200 -0.126145 46.873636 149.033256 -0.000000 0.043660 0.236123 -0.361105
0.190000 33.804891 113.436735 -0.000000 0.345684 0.397197 -0.126130 46.859313 148.791446 -0.000000 0.043620 0.236141 -0.361109
0.195000 33.427715 113.220515 -0.000000 0.345708 0.397181 -0.126141 46.995376 148.634112 -0.000000 0.043597 0.236150 -0.361096
0.200000 33.077404 113.014948 -0.000000 0.345734 0.397184 -0.126137 47.300276 148.601868 -0.000000 0.043589 0.236140 -0.361099
0.205000 32.762920 112.815206 -0.000000 0.345757 0.397188 -0.126135 47.785063 148.695506 -0.000000 0.043591 0.236133 -0.361092
0.210000 32.453417 112.621356 -0.000000 0.345747 0.397208 -0.126145 48.368265 148.894281 -0.000000 0.043600 0.236107 -0.361089
0.215000 32.153116 112.434893 -0.000000 0.345750 0.397249 -0.126137 48.958504 149.137640 -0.000000 0.043606 0.236080 -0.361087
0.220000 31.864794 112.281509 -0.000000 0.345731 0.397300 -0.126141 49.409292 149.358509 -0.000000 0.043624 0.236041 -0.361089
0.225000 31.614654 112.194859 -0.000000 0.345701 0.397373 -0.126136 49.591439 149.490576 -0.000000 0.043646 0.235974 -0.361077
0.230000 31.451377 112.192826 -0.000000 0.345657 0.397443 -0.126146 49.460254 149.482674 -0.000000 0.043694 0.235929 -0.361087
0.235000 31.373598 112.287766 -0.000000 0.345595 0.397527 -0.126139 49.006510 149.347245 -0.000000 0.043736 0.235834 -0.361099
0.240000 31.435005 112.465690 -0.000000 0.345534 0.397577 -0.126123 48.397444 149.128050 -0.000000 0.043793 0.235744 -0.361096
0.245000 31.617020 112.723274 -0.000000 0.345470 0.397676 -0.126141 47.780187 148.939043 -0.000000 0.043844 0.235618 -0.361082
0.250000 31.935012 113.025893 -0.000000 0.345396 0.397759 -0.126127 47.376798 148.864254 -0.000000 0.043903 0.235498 -0.361086
0.255000 32.329750 113.335575 -0.000000 0.345315 0.397869 -0.126136 47.271091 148.954158 -0.000000 0.043957 0.235393 -0.361088
0.260000 32.729941 113.614516 -0.000000 0.345243 0.397997 -0.126155 47.426500 149.190239 -0.000000 0.044003 0.235280 -0.361081
0.265000 33.092258 113.842285 -0.000000 0.345134 0.398102 -0.126187 47.723425 149.497966 -0.000000 0.044056 0.235182 -0.361066
0.270000 33.385320 114.029185 -0.000000 0.345055 0.398236 -0.126194 47.977034 149.793717 -0.000000 0.044097 0.235075 -0.361072
0.275000 33.631676 114.185395 -0.000000 0.344970 0.398349 -0.126217 48.063988 149.994790 -0.000000 0.044143 0.234990 -0.361060
0.280000 33.835294 114.318961 -0.000000 0.344892 0.398425 -0.126246 47.909555 150.064301 -0.000000 0.044181 0.234880 -0.361066
0.285000 34.011078 114.422122 -0.000000 0.344853 0.398510 -0.126260 47.561893 150.005076 -0.000000 0.044208 0.234816 -0.361066
0.290000 34.142185 114.496041 -0.000000 0.344826 0.398585 -0.126267 47.091844 149.870832 -0.000000 0.044231 0.234731 -0.361068
0.295000 34.282953 114.532279 -0.000000 0.344807 0.398565 -0.126274 46.669711 149.706348 -0.000000 0.044256 0.234670 -0.361062
0.300000 34.409420 114.551281 -0.000000 0.344848 0.398622 -0.126271 46.350417 149.583823 -0.000000 0.044257 0.234631 -0.361069
0.305000 34.523101 114.548452 -0.000000 0.344806 0.398651 -0.126175 46.213046 149.534539 -0.000000 0.044250 0.234615 -0.361071
0.310000 34.755373 114.447905 -0.000000 0.344825 0.398109 -0.126187 46.508815 149.502868 -0.000000 0.044259 0.234588 -0.361071
0.315000 34.715018 114.318614 -0.000000 0.344857 0.398149 -0.126171 46.797718 149.627219 -0.000000 0.044245 0.234561 -0.361076
0.320000 34.550012 114.091724 -0.000000 0.344866 0.398186 -0.126166 47.291070 149.828809 -0.000000 0.044228 0.234565 -0.361078
0.325000 34.276669 113.782183 -0.000000 0.344902 0.398184 -0.126178 47.958669 150.090200 -0.000000 0.044216 0.234548 -0.361087
0.330000 33.921239 113.429571 -0.000000 0.344917 0.398169 -0.126232 48.729465 150.387705 -0.000000 0.044223 0.234529 -0.361068
0.335000 33.533665 113.067527 -0.000000 0.344950 0.398179 -0.126248 49.508907 150.660151 -0.000000 0.044212 0.234537 -0.361067
0.340000 33.122815 112.731408 -0.000000 0.344971 0.398195 -0.126245 50.085080 150.822103 -0.000000 0.044208 0.234501 -0.361064
0.345000 32.549964 112.488724 -0.000000 0.344985 0.398858 -0.126250 50.032727 150.839009 -0.000000 0.044209 0.234482 -0.361070
0.350000 32.195574 112.244177 -0.000000 0.345000 0.398897 -0.126268 49.727745 150.495744 -0.000000 0.044226 0.234442 -0.361051
0.355000 31.878431 112.051249 -0.000000 0.344978 0.398950 -0.126246 48.992672 149.924732 -0.000000 0.044236 0.234391 -0.361056
0.360000 31.602732 111.899450 -0.000000 0.344948 0.399010 -0.126263 48.052629 149.249058 -0.000000 0.044245 0.234354 -0.361062
0.365000 31.351547 111.791089 -0.000000 0.344963 0.399098 -0.126281 47.120848 148.616680 -0.000000 0.044289 0.234291 -0.361059
0.370000 31.134794 111.738709 -0.000000 0.344876 0.399182 -0.126183 46.361722 148.138041 -0.000000 0.044335 0.234198 -0.361049
0.375000 31.019563 111.751402 -0.000000 0.344825 0.399265 -0.126190 45.896250 147.847474 -0.000000 0.044386 0.234114 -0.361064
0.380000 31.017622 111.853598 -0.000000 0.344742 0.399371 -0.126180 45.657142 147.739424 -0.000000 0.044459 0.234024 -0.361061
0.385000 31.174073 112.046168 -0.000000 0.344675 0.399474 -0.126201 45.562581 147.744203 -0.000000 0.044512 0.233919 -0.361056
0.390000 31.483875 112.314016 -0.000000 0.344592 0.399565 -0.126210 45.499483 147.788966 -0.000000 0.044589 0.233833 -0.361056
0.395000 31.876728 112.630532 -0.000000 0.344500 0.399696 -0.126212 45.360468 147.834274 -0.000000 0.044656 0.233704 -0.361061
0.400000 32.341947 112.942989 -0.000000 0.344406 0.399793 -0.126212 45.204328 147.843551 -0.000000 0.044711 0.233642 -0.361053
0.405000 32.754914 113.235493 -0.000000 0.344316 0.399903 -0.126241 45.002577 147.854055 -0.000000 0.044772 0.233524 -0.361060
0.410000 33.074312 113.473896 -0.000000 0.344229 0.400011 -0.126222 44.861917 147.894304 -0.000000 0.044837 0.233415 -0.361046
0.415000 33.261352 113.637272 -0.000000 0.344159 0.400125 -0.126211 44.855263 148.008879 -0.000000 0.044900 0.233316 -0.361050
0.420000 33.332233 113.717504 -0.000000 0.344085 0.400203 -0.126210 45.024417 148.215902 -0.000000 0.044936 0.233230 -0.361052
0.425000 33.313000 113.734213 -0.000000 0.344047 0.400290 -0.126211 45.325134 148.512492 -0.000000 0.044968 0.233154 -0.361055
0.430000 33.263638 113.709279 -0.000000 0.344104 0.400338 -0.126178 45.745661 148.874682 -0.000000 0.045011 0.233070 -0.361041
